<svg width="177" height="177" viewBox="0 0 177 177" fill="none" xmlns="http://www.w3.org/2000/svg">
<path d="M31.762 55.0977C31.7953 55.0779 31.8331 55.0673 31.8717 55.0669C31.9103 55.0665 31.9484 55.0764 31.982 55.0954L60.1211 71.156C60.1547 71.175 60.1827 71.2026 60.2023 71.236C60.2219 71.2694 60.2325 71.3073 60.2329 71.3461C60.2334 71.3849 60.2237 71.423 60.2048 71.4569C60.186 71.4907 60.1586 71.5189 60.1255 71.5387L32.466 88.1535C32.4318 88.1742 32.3926 88.1851 32.3527 88.1851C32.3128 88.1851 32.2736 88.1742 32.2394 88.1535L4.66901 71.5443C4.63619 71.5247 4.60899 71.4968 4.5901 71.4635C4.57121 71.4301 4.56128 71.3924 4.56128 71.354C4.56128 71.3156 4.57121 71.2779 4.5901 71.2445C4.60899 71.2112 4.63619 71.1833 4.66901 71.1637L31.762 55.0977Z" fill="url(#paint0_linear_302_4987)" stroke="url(#paint1_linear_302_4987)" stroke-width="0.868" stroke-linecap="round" stroke-linejoin="round"/>
<path d="M4.33691 71.6276L32.3869 88.2213V120.855L4.33691 104.261V71.6276Z" fill="url(#paint2_linear_302_4987)" stroke="url(#paint3_linear_302_4987)" stroke-width="0.868" stroke-linecap="round" stroke-linejoin="round"/>
<path d="M60.4367 71.6276L32.3867 88.2213V120.855L60.4367 104.261V71.6276Z" fill="url(#paint4_linear_302_4987)" stroke="url(#paint5_linear_302_4987)" stroke-width="0.868" stroke-linecap="round" stroke-linejoin="round"/>
<path d="M60.3621 6.42285C60.3954 6.40309 60.4332 6.39249 60.4718 6.3921C60.5104 6.39171 60.5485 6.40155 60.5821 6.42064L88.7212 22.4812C88.7548 22.5002 88.7828 22.5278 88.8024 22.5612C88.822 22.5946 88.8326 22.6325 88.833 22.6713C88.8335 22.71 88.8238 22.7482 88.8049 22.7821C88.7861 22.8159 88.7587 22.8441 88.7256 22.8639L61.0661 39.4787C61.0319 39.4994 60.9927 39.5103 60.9528 39.5103C60.9129 39.5103 60.8737 39.4994 60.8395 39.4787L33.2691 22.8695C33.2363 22.8499 33.2091 22.822 33.1902 22.7887C33.1713 22.7553 33.1614 22.7176 33.1614 22.6792C33.1614 22.6408 33.1713 22.6031 33.1902 22.5697C33.2091 22.5364 33.2363 22.5085 33.2691 22.4889L60.3621 6.42285Z" fill="url(#paint6_linear_302_4987)" stroke="url(#paint7_linear_302_4987)" stroke-width="0.868" stroke-linecap="round" stroke-linejoin="round"/>
<path d="M32.9368 22.9512L60.9868 39.5449V72.1793L32.9368 55.5856V22.9512Z" fill="url(#paint8_linear_302_4987)" stroke="url(#paint9_linear_302_4987)" stroke-width="0.868" stroke-linecap="round" stroke-linejoin="round"/>
<path d="M89.0368 22.9512L60.9868 39.5449V72.1793L89.0368 55.5856V22.9512Z" fill="url(#paint10_linear_302_4987)" stroke="url(#paint11_linear_302_4987)" stroke-width="0.868" stroke-linecap="round" stroke-linejoin="round"/>
<path d="M60.3621 104.879C60.3954 104.859 60.4332 104.849 60.4718 104.848C60.5104 104.848 60.5485 104.858 60.5821 104.877L88.7212 120.937C88.7548 120.956 88.7828 120.984 88.8024 121.017C88.822 121.051 88.8326 121.089 88.833 121.127C88.8335 121.166 88.8238 121.204 88.8049 121.238C88.7861 121.272 88.7587 121.3 88.7256 121.32L61.0661 137.935C61.0319 137.955 60.9927 137.966 60.9528 137.966C60.9129 137.966 60.8737 137.955 60.8395 137.935L33.2691 121.326C33.2363 121.306 33.2091 121.278 33.1902 121.245C33.1713 121.211 33.1614 121.174 33.1614 121.135C33.1614 121.097 33.1713 121.059 33.1902 121.026C33.2091 120.992 33.2363 120.965 33.2691 120.945L60.3621 104.879Z" fill="url(#paint12_linear_302_4987)" stroke="url(#paint13_linear_302_4987)" stroke-width="0.868" stroke-linecap="round" stroke-linejoin="round"/>
<path d="M32.9368 121.408L60.9868 138.001V170.636L32.9368 154.042V121.408Z" fill="url(#paint14_linear_302_4987)" stroke="url(#paint15_linear_302_4987)" stroke-width="0.868" stroke-linecap="round" stroke-linejoin="round"/>
<path d="M89.0368 121.408L60.9868 138.001V170.636L89.0368 154.042V121.408Z" fill="url(#paint16_linear_302_4987)" stroke="url(#paint17_linear_302_4987)" stroke-width="0.868" stroke-linecap="round" stroke-linejoin="round"/>
<path d="M116.462 104.879C116.495 104.859 116.533 104.849 116.572 104.848C116.61 104.848 116.648 104.858 116.682 104.877L144.821 120.937C144.855 120.956 144.883 120.984 144.902 121.017C144.922 121.051 144.933 121.089 144.933 121.127C144.933 121.166 144.924 121.204 144.905 121.238C144.886 121.272 144.859 121.3 144.826 121.32L117.165 137.935C117.131 137.955 117.092 137.966 117.052 137.966C117.013 137.966 116.974 137.955 116.939 137.935L89.368 121.326C89.3352 121.306 89.308 121.278 89.2891 121.245C89.2702 121.211 89.2603 121.174 89.2603 121.135C89.2603 121.097 89.2702 121.059 89.2891 121.026C89.308 120.992 89.3352 120.965 89.368 120.945L116.462 104.879Z" fill="url(#paint18_linear_302_4987)" stroke="url(#paint19_linear_302_4987)" stroke-width="0.868" stroke-linecap="round" stroke-linejoin="round"/>
<path d="M89.0369 121.408L117.087 138.001V170.636L89.0369 154.042V121.408Z" fill="url(#paint20_linear_302_4987)" stroke="url(#paint21_linear_302_4987)" stroke-width="0.868" stroke-linecap="round" stroke-linejoin="round"/>
<path d="M145.137 121.408L117.087 138.001V170.636L145.137 154.042V121.408Z" fill="url(#paint22_linear_302_4987)" stroke="url(#paint23_linear_302_4987)" stroke-width="0.868" stroke-linecap="round" stroke-linejoin="round"/>
<path d="M145.062 55.0977C145.095 55.0779 145.133 55.0673 145.172 55.0669C145.21 55.0665 145.248 55.0764 145.282 55.0954L173.421 71.156C173.455 71.175 173.483 71.2026 173.502 71.236C173.522 71.2694 173.533 71.3073 173.533 71.3461C173.533 71.3849 173.524 71.423 173.505 71.4569C173.486 71.4907 173.459 71.5189 173.426 71.5387L145.765 88.1535C145.731 88.174 145.692 88.1848 145.652 88.1848C145.613 88.1848 145.574 88.174 145.54 88.1535L117.968 71.5443C117.935 71.5246 117.908 71.4967 117.889 71.4632C117.871 71.4298 117.861 71.3921 117.861 71.3537C117.861 71.3153 117.871 71.2776 117.89 71.2443C117.909 71.211 117.936 71.1832 117.969 71.1637L145.062 55.0977Z" fill="url(#paint24_linear_302_4987)" stroke="url(#paint25_linear_302_4987)" stroke-linecap="round" stroke-linejoin="round"/>
<path d="M117.637 71.6276L145.687 88.2213V120.855L117.637 104.261V71.6276Z" fill="url(#paint26_linear_302_4987)" stroke="url(#paint27_linear_302_4987)" stroke-width="0.868" stroke-linecap="round" stroke-linejoin="round"/>
<path d="M173.737 71.6276L145.687 88.2213V120.855L173.737 104.261V71.6276Z" fill="url(#paint28_linear_302_4987)" stroke="url(#paint29_linear_302_4987)" stroke-width="0.868" stroke-linecap="round" stroke-linejoin="round"/>
<path d="M116.462 6.42285C116.495 6.40309 116.533 6.39249 116.572 6.3921C116.61 6.39171 116.648 6.40155 116.682 6.42064L144.821 22.4812C144.855 22.5002 144.883 22.5278 144.902 22.5612C144.922 22.5946 144.933 22.6325 144.933 22.6713C144.933 22.71 144.924 22.7482 144.905 22.7821C144.886 22.8159 144.859 22.8441 144.826 22.8639L117.165 39.4787C117.131 39.4992 117.092 39.51 117.052 39.51C117.013 39.51 116.974 39.4992 116.939 39.4787L89.368 22.8695C89.3352 22.8499 89.308 22.822 89.2891 22.7887C89.2702 22.7553 89.2603 22.7176 89.2603 22.6792C89.2603 22.6408 89.2702 22.6031 89.2891 22.5697C89.308 22.5364 89.3352 22.5085 89.368 22.4889L116.462 6.42285Z" fill="url(#paint30_linear_302_4987)" stroke="url(#paint31_linear_302_4987)" stroke-width="0.868" stroke-linecap="round" stroke-linejoin="round"/>
<path d="M89.0369 22.9512L117.087 39.5449V72.1793L89.0369 55.5856V22.9512Z" fill="url(#paint32_linear_302_4987)" stroke="url(#paint33_linear_302_4987)" stroke-width="0.868" stroke-linecap="round" stroke-linejoin="round"/>
<path d="M145.137 22.9512L117.087 39.5449V72.1793L145.137 55.5856V22.9512Z" fill="url(#paint34_linear_302_4987)" stroke="url(#paint35_linear_302_4987)" stroke-width="0.868" stroke-linecap="round" stroke-linejoin="round"/>
<g filter="url(#filter0_f_302_4987)">
<path d="M88.1052 56.0326C88.1767 55.9899 88.258 55.9668 88.3412 55.9654C88.4243 55.964 88.5064 55.9845 88.5792 56.0249L116.498 71.5323C116.823 71.7126 116.828 72.1795 116.507 72.3664L89.0611 88.4059C88.9875 88.449 88.9038 88.4715 88.8188 88.4711C88.7337 88.4707 88.6502 88.4475 88.5771 88.4037L61.8954 72.5102C61.8243 72.4677 61.7654 72.4073 61.7245 72.335C61.6836 72.2626 61.6621 72.1808 61.6621 72.0976C61.6621 72.0144 61.6836 71.9326 61.7245 71.8603C61.7654 71.7879 61.8243 71.7275 61.8954 71.685L88.1052 56.0326Z" stroke="url(#paint36_linear_302_4987)" stroke-width="0.87" stroke-linecap="round" stroke-linejoin="round"/>
<path d="M60.9319 72.7911C60.9319 72.4205 61.3323 72.1893 61.6502 72.3785L88.7465 88.4081C88.8917 88.4932 88.9808 88.6514 88.9808 88.8207V120.341C88.9806 120.426 88.9584 120.508 88.9162 120.581C88.8741 120.654 88.8135 120.715 88.7407 120.757C88.6678 120.799 88.5852 120.821 88.5013 120.82C88.4173 120.82 88.335 120.797 88.2625 120.755L61.1651 104.725C61.0936 104.683 61.0343 104.623 60.993 104.55C60.9517 104.478 60.9299 104.396 60.9297 104.313V72.7911H60.9319Z" stroke="url(#paint37_linear_302_4987)" stroke-width="0.87" stroke-linecap="round" stroke-linejoin="round"/>
<path d="M117.032 72.7914C117.032 72.7069 117.009 72.6239 116.967 72.5509C116.925 72.4779 116.864 72.4174 116.791 72.3756C116.718 72.3337 116.635 72.3119 116.551 72.3125C116.467 72.3131 116.385 72.3359 116.313 72.3788L89.2162 88.4083C89.1449 88.4507 89.0858 88.5111 89.0448 88.5834C89.0037 88.6558 88.982 88.7376 88.9819 88.8209V120.341C88.9819 120.713 89.3823 120.943 89.7002 120.755L116.797 104.726C116.868 104.683 116.927 104.623 116.968 104.55C117.01 104.478 117.032 104.396 117.032 104.313V72.7914Z" stroke="url(#paint38_linear_302_4987)" stroke-width="0.87" stroke-linecap="round" stroke-linejoin="round"/>
</g>
<path d="M88.1052 56.0326C88.1767 55.9899 88.258 55.9668 88.3412 55.9654C88.4243 55.964 88.5064 55.9845 88.5793 56.0249L116.498 71.5323C116.823 71.7126 116.828 72.1795 116.507 72.3664L89.0611 88.4059C88.9875 88.449 88.9038 88.4715 88.8188 88.4711C88.7337 88.4707 88.6502 88.4475 88.5771 88.4037L61.8954 72.5102C61.8243 72.4677 61.7654 72.4073 61.7245 72.335C61.6836 72.2626 61.6621 72.1808 61.6621 72.0976C61.6621 72.0144 61.6836 71.9326 61.7245 71.8603C61.7654 71.7879 61.8243 71.7275 61.8954 71.685L88.1052 56.0326Z" fill="url(#paint39_linear_302_4987)" stroke="url(#paint40_linear_302_4987)" stroke-width="0.87" stroke-linecap="round" stroke-linejoin="round"/>
<path d="M60.9319 72.7911C60.9319 72.4205 61.3323 72.1893 61.6502 72.3785L88.7465 88.4081C88.8917 88.4932 88.9808 88.6514 88.9808 88.8207V120.341C88.9806 120.426 88.9584 120.508 88.9162 120.581C88.8741 120.654 88.8135 120.715 88.7407 120.757C88.6678 120.799 88.5852 120.821 88.5013 120.82C88.4173 120.82 88.335 120.797 88.2625 120.755L61.1651 104.725C61.0936 104.683 61.0343 104.623 60.993 104.55C60.9517 104.478 60.9299 104.396 60.9297 104.313V72.7911H60.9319Z" fill="url(#paint41_linear_302_4987)" stroke="url(#paint42_linear_302_4987)" stroke-width="0.87" stroke-linecap="round" stroke-linejoin="round"/>
<path d="M117.032 72.7914C117.031 72.7069 117.009 72.6239 116.967 72.5509C116.924 72.4779 116.864 72.4174 116.791 72.3756C116.718 72.3337 116.635 72.3119 116.551 72.3125C116.467 72.3131 116.385 72.3359 116.312 72.3788L89.216 88.4083C89.1447 88.4507 89.0856 88.5111 89.0445 88.5834C89.0034 88.6558 88.9818 88.7376 88.9817 88.8209V120.341C88.9817 120.713 89.3821 120.943 89.7 120.755L116.796 104.726C116.868 104.683 116.927 104.623 116.968 104.55C117.01 104.478 117.031 104.396 117.032 104.313V72.7914Z" fill="url(#paint43_linear_302_4987)" stroke="url(#paint44_linear_302_4987)" stroke-width="0.87" stroke-linecap="round" stroke-linejoin="round"/>
<path d="M103.271 91.4148C103.271 91.6161 103.271 91.8163 103.072 92.0166L102.476 93.8197V94.02C100.488 98.8299 96.3133 102.237 91.3435 103.239H91.1455C89.3569 103.64 87.5683 103.439 85.7786 103.239C77.6298 101.436 72.66 93.6195 74.2506 85.6036C75.8401 77.3875 83.7909 72.1771 91.7417 73.9803C94.5247 74.5821 97.1097 75.9848 99.2954 77.9882C102.873 81.3954 104.463 86.6059 103.271 91.4148Z" fill="white"/>
<path d="M94.0716 84.8516L86.981 91.9824L83.4346 88.417" stroke="url(#paint45_linear_302_4987)" stroke-width="2" stroke-linecap="round" stroke-linejoin="round"/>
<defs>
<filter id="filter0_f_302_4987" x="40.4946" y="35.5303" width="96.9724" height="105.728" filterUnits="userSpaceOnUse" color-interpolation-filters="sRGB">
<feFlood flood-opacity="0" result="BackgroundImageFix"/>
<feBlend mode="normal" in="SourceGraphic" in2="BackgroundImageFix" result="shape"/>
<feGaussianBlur stdDeviation="10" result="effect1_foregroundBlur_302_4987"/>
</filter>
<linearGradient id="paint0_linear_302_4987" x1="57.4558" y1="93.3927" x2="55.816" y2="60.3544" gradientUnits="userSpaceOnUse">
<stop stop-color="#3F3F3F" stop-opacity="0.4"/>
<stop offset="1" stop-color="#3E3E3E" stop-opacity="0.2"/>
</linearGradient>
<linearGradient id="paint1_linear_302_4987" x1="76.5133" y1="44.5363" x2="52.5558" y2="120.684" gradientUnits="userSpaceOnUse">
<stop stop-color="#66656A"/>
<stop offset="1" stop-color="#373639"/>
</linearGradient>
<linearGradient id="paint2_linear_302_4987" x1="30.8898" y1="128.526" x2="23.8102" y2="80.4426" gradientUnits="userSpaceOnUse">
<stop stop-color="#3F3F3F" stop-opacity="0.4"/>
<stop offset="1" stop-color="#3E3E3E" stop-opacity="0.2"/>
</linearGradient>
<linearGradient id="paint3_linear_302_4987" x1="40.4191" y1="56.0593" x2="-21.4974" y2="122.399" gradientUnits="userSpaceOnUse">
<stop stop-color="#66656A"/>
<stop offset="1" stop-color="#373639"/>
</linearGradient>
<linearGradient id="paint4_linear_302_4987" x1="33.8838" y1="128.526" x2="40.9645" y2="80.4426" gradientUnits="userSpaceOnUse">
<stop stop-color="#3F3F3F" stop-opacity="0.4"/>
<stop offset="1" stop-color="#3E3E3E" stop-opacity="0.2"/>
</linearGradient>
<linearGradient id="paint5_linear_302_4987" x1="24.3556" y1="56.0593" x2="86.271" y2="122.399" gradientUnits="userSpaceOnUse">
<stop stop-color="#66656A"/>
<stop offset="1" stop-color="#373639"/>
</linearGradient>
<linearGradient id="paint6_linear_302_4987" x1="86.0559" y1="44.7179" x2="84.4161" y2="11.6796" gradientUnits="userSpaceOnUse">
<stop stop-color="#3F3F3F" stop-opacity="0.4"/>
<stop offset="1" stop-color="#3E3E3E" stop-opacity="0.2"/>
</linearGradient>
<linearGradient id="paint7_linear_302_4987" x1="105.113" y1="-4.13852" x2="81.1559" y2="72.0092" gradientUnits="userSpaceOnUse">
<stop stop-color="#66656A"/>
<stop offset="1" stop-color="#373639"/>
</linearGradient>
<linearGradient id="paint8_linear_302_4987" x1="59.4897" y1="79.8511" x2="52.4101" y2="31.7673" gradientUnits="userSpaceOnUse">
<stop stop-color="#3F3F3F" stop-opacity="0.4"/>
<stop offset="1" stop-color="#3E3E3E" stop-opacity="0.2"/>
</linearGradient>
<linearGradient id="paint9_linear_302_4987" x1="69.019" y1="7.38402" x2="7.10244" y2="73.7234" gradientUnits="userSpaceOnUse">
<stop stop-color="#66656A"/>
<stop offset="1" stop-color="#373639"/>
</linearGradient>
<linearGradient id="paint10_linear_302_4987" x1="62.4839" y1="79.8511" x2="69.5646" y2="31.7673" gradientUnits="userSpaceOnUse">
<stop stop-color="#3F3F3F" stop-opacity="0.4"/>
<stop offset="1" stop-color="#3E3E3E" stop-opacity="0.2"/>
</linearGradient>
<linearGradient id="paint11_linear_302_4987" x1="52.9557" y1="7.38402" x2="114.871" y2="73.7234" gradientUnits="userSpaceOnUse">
<stop stop-color="#66656A"/>
<stop offset="1" stop-color="#373639"/>
</linearGradient>
<linearGradient id="paint12_linear_302_4987" x1="86.0559" y1="143.174" x2="84.4161" y2="110.136" gradientUnits="userSpaceOnUse">
<stop stop-color="#3F3F3F" stop-opacity="0.4"/>
<stop offset="1" stop-color="#3E3E3E" stop-opacity="0.2"/>
</linearGradient>
<linearGradient id="paint13_linear_302_4987" x1="105.113" y1="94.3175" x2="81.1559" y2="170.465" gradientUnits="userSpaceOnUse">
<stop stop-color="#66656A"/>
<stop offset="1" stop-color="#373639"/>
</linearGradient>
<linearGradient id="paint14_linear_302_4987" x1="59.4897" y1="178.308" x2="52.4101" y2="130.224" gradientUnits="userSpaceOnUse">
<stop stop-color="#3F3F3F" stop-opacity="0.4"/>
<stop offset="1" stop-color="#3E3E3E" stop-opacity="0.2"/>
</linearGradient>
<linearGradient id="paint15_linear_302_4987" x1="69.019" y1="105.841" x2="7.10246" y2="172.18" gradientUnits="userSpaceOnUse">
<stop stop-color="#66656A"/>
<stop offset="1" stop-color="#373639"/>
</linearGradient>
<linearGradient id="paint16_linear_302_4987" x1="62.4839" y1="178.308" x2="69.5646" y2="130.224" gradientUnits="userSpaceOnUse">
<stop stop-color="#3F3F3F" stop-opacity="0.4"/>
<stop offset="1" stop-color="#3E3E3E" stop-opacity="0.2"/>
</linearGradient>
<linearGradient id="paint17_linear_302_4987" x1="52.9557" y1="105.841" x2="114.871" y2="172.18" gradientUnits="userSpaceOnUse">
<stop stop-color="#66656A"/>
<stop offset="1" stop-color="#373639"/>
</linearGradient>
<linearGradient id="paint18_linear_302_4987" x1="142.156" y1="143.174" x2="140.516" y2="110.136" gradientUnits="userSpaceOnUse">
<stop stop-color="#3F3F3F" stop-opacity="0.4"/>
<stop offset="1" stop-color="#3E3E3E" stop-opacity="0.2"/>
</linearGradient>
<linearGradient id="paint19_linear_302_4987" x1="161.213" y1="94.3175" x2="137.256" y2="170.465" gradientUnits="userSpaceOnUse">
<stop stop-color="#66656A"/>
<stop offset="1" stop-color="#373639"/>
</linearGradient>
<linearGradient id="paint20_linear_302_4987" x1="115.59" y1="178.308" x2="108.51" y2="130.224" gradientUnits="userSpaceOnUse">
<stop stop-color="#3F3F3F" stop-opacity="0.4"/>
<stop offset="1" stop-color="#3E3E3E" stop-opacity="0.2"/>
</linearGradient>
<linearGradient id="paint21_linear_302_4987" x1="125.119" y1="105.841" x2="63.2026" y2="172.18" gradientUnits="userSpaceOnUse">
<stop stop-color="#66656A"/>
<stop offset="1" stop-color="#373639"/>
</linearGradient>
<linearGradient id="paint22_linear_302_4987" x1="118.584" y1="178.308" x2="125.665" y2="130.224" gradientUnits="userSpaceOnUse">
<stop stop-color="#3F3F3F" stop-opacity="0.4"/>
<stop offset="1" stop-color="#3E3E3E" stop-opacity="0.2"/>
</linearGradient>
<linearGradient id="paint23_linear_302_4987" x1="109.056" y1="105.841" x2="170.971" y2="172.18" gradientUnits="userSpaceOnUse">
<stop stop-color="#66656A"/>
<stop offset="1" stop-color="#373639"/>
</linearGradient>
<linearGradient id="paint24_linear_302_4987" x1="170.756" y1="93.3927" x2="169.116" y2="60.3544" gradientUnits="userSpaceOnUse">
<stop stop-color="#3F3F3F" stop-opacity="0.4"/>
<stop offset="1" stop-color="#3E3E3E" stop-opacity="0.2"/>
</linearGradient>
<linearGradient id="paint25_linear_302_4987" x1="189.813" y1="44.5363" x2="165.856" y2="120.684" gradientUnits="userSpaceOnUse">
<stop stop-color="#66656A"/>
<stop offset="1" stop-color="#373639"/>
</linearGradient>
<linearGradient id="paint26_linear_302_4987" x1="144.19" y1="128.526" x2="137.11" y2="80.4426" gradientUnits="userSpaceOnUse">
<stop stop-color="#3F3F3F" stop-opacity="0.4"/>
<stop offset="1" stop-color="#3E3E3E" stop-opacity="0.2"/>
</linearGradient>
<linearGradient id="paint27_linear_302_4987" x1="153.719" y1="56.0593" x2="91.8024" y2="122.399" gradientUnits="userSpaceOnUse">
<stop stop-color="#66656A"/>
<stop offset="1" stop-color="#373639"/>
</linearGradient>
<linearGradient id="paint28_linear_302_4987" x1="147.184" y1="128.526" x2="154.265" y2="80.4426" gradientUnits="userSpaceOnUse">
<stop stop-color="#3F3F3F" stop-opacity="0.4"/>
<stop offset="1" stop-color="#3E3E3E" stop-opacity="0.2"/>
</linearGradient>
<linearGradient id="paint29_linear_302_4987" x1="137.656" y1="56.0593" x2="199.571" y2="122.399" gradientUnits="userSpaceOnUse">
<stop stop-color="#66656A"/>
<stop offset="1" stop-color="#373639"/>
</linearGradient>
<linearGradient id="paint30_linear_302_4987" x1="142.156" y1="44.7179" x2="140.516" y2="11.6796" gradientUnits="userSpaceOnUse">
<stop stop-color="#3F3F3F" stop-opacity="0.4"/>
<stop offset="1" stop-color="#3E3E3E" stop-opacity="0.2"/>
</linearGradient>
<linearGradient id="paint31_linear_302_4987" x1="161.213" y1="-4.13852" x2="137.256" y2="72.0092" gradientUnits="userSpaceOnUse">
<stop stop-color="#66656A"/>
<stop offset="1" stop-color="#373639"/>
</linearGradient>
<linearGradient id="paint32_linear_302_4987" x1="115.59" y1="79.8511" x2="108.51" y2="31.7673" gradientUnits="userSpaceOnUse">
<stop stop-color="#3F3F3F" stop-opacity="0.4"/>
<stop offset="1" stop-color="#3E3E3E" stop-opacity="0.2"/>
</linearGradient>
<linearGradient id="paint33_linear_302_4987" x1="125.119" y1="7.38402" x2="63.2025" y2="73.7234" gradientUnits="userSpaceOnUse">
<stop stop-color="#66656A"/>
<stop offset="1" stop-color="#373639"/>
</linearGradient>
<linearGradient id="paint34_linear_302_4987" x1="118.584" y1="79.8511" x2="125.665" y2="31.7673" gradientUnits="userSpaceOnUse">
<stop stop-color="#3F3F3F" stop-opacity="0.4"/>
<stop offset="1" stop-color="#3E3E3E" stop-opacity="0.2"/>
</linearGradient>
<linearGradient id="paint35_linear_302_4987" x1="109.056" y1="7.38402" x2="170.971" y2="73.7234" gradientUnits="userSpaceOnUse">
<stop stop-color="#66656A"/>
<stop offset="1" stop-color="#373639"/>
</linearGradient>
<linearGradient id="paint36_linear_302_4987" x1="89.2184" y1="51.5391" x2="89.2184" y2="93.9892" gradientUnits="userSpaceOnUse">
<stop stop-color="#FD8244"/>
<stop offset="1" stop-color="#E03430"/>
</linearGradient>
<linearGradient id="paint37_linear_302_4987" x1="74.9569" y1="65.3892" x2="74.9569" y2="129.386" gradientUnits="userSpaceOnUse">
<stop stop-color="#FD8244"/>
<stop offset="1" stop-color="#E03430"/>
</linearGradient>
<linearGradient id="paint38_linear_302_4987" x1="103.007" y1="65.3895" x2="103.007" y2="129.386" gradientUnits="userSpaceOnUse">
<stop stop-color="#FD8244"/>
<stop offset="1" stop-color="#E03430"/>
</linearGradient>
<linearGradient id="paint39_linear_302_4987" x1="120.942" y1="72.2182" x2="48.2107" y2="75.0658" gradientUnits="userSpaceOnUse">
<stop stop-color="#0A00FF"/>
<stop offset="1" stop-color="#8FFCFF"/>
</linearGradient>
<linearGradient id="paint40_linear_302_4987" x1="120.942" y1="72.2182" x2="48.2107" y2="75.0658" gradientUnits="userSpaceOnUse">
<stop stop-color="#0A00FF"/>
<stop offset="1" stop-color="#8FFCFF"/>
</linearGradient>
<linearGradient id="paint41_linear_302_4987" x1="91.118" y1="96.5657" x2="54.0294" y2="97.0613" gradientUnits="userSpaceOnUse">
<stop stop-color="#0A00FF"/>
<stop offset="1" stop-color="#8FFCFF"/>
</linearGradient>
<linearGradient id="paint42_linear_302_4987" x1="91.118" y1="96.5657" x2="54.0294" y2="97.0613" gradientUnits="userSpaceOnUse">
<stop stop-color="#0A00FF"/>
<stop offset="1" stop-color="#8FFCFF"/>
</linearGradient>
<linearGradient id="paint43_linear_302_4987" x1="119.169" y1="96.5673" x2="82.0817" y2="97.0628" gradientUnits="userSpaceOnUse">
<stop stop-color="#0A00FF"/>
<stop offset="1" stop-color="#8FFCFF"/>
</linearGradient>
<linearGradient id="paint44_linear_302_4987" x1="119.169" y1="96.5673" x2="82.0817" y2="97.0628" gradientUnits="userSpaceOnUse">
<stop stop-color="#0A00FF"/>
<stop offset="1" stop-color="#8FFCFF"/>
</linearGradient>
<linearGradient id="paint45_linear_302_4987" x1="94.882" y1="88.417" x2="80.8321" y2="88.9012" gradientUnits="userSpaceOnUse">
<stop stop-color="#0A00FF"/>
<stop offset="1" stop-color="#8FFCFF"/>
</linearGradient>
</defs>
</svg>
