<svg width="31" height="21" viewBox="0 0 31 21" fill="none" xmlns="http://www.w3.org/2000/svg">
<g opacity="0.4">
<path d="M26.8449 21C26.7135 21.0002 26.5833 20.9776 26.4619 20.9335C26.3405 20.8895 26.2303 20.8248 26.1375 20.7433L4.12093 1.47879C3.94118 1.31324 3.84244 1.09279 3.84579 0.86445C3.84913 0.636112 3.95428 0.417948 4.13882 0.256475C4.32336 0.0950018 4.57269 0.00299531 4.83365 7.18492e-05C5.0946 -0.00285161 5.34654 0.0835395 5.53575 0.240826L27.5524 19.5054C27.6922 19.6278 27.7875 19.7838 27.826 19.9536C27.8646 20.1234 27.8448 20.2994 27.7691 20.4594C27.6934 20.6193 27.5652 20.7561 27.4007 20.8523C27.2362 20.9485 27.0428 20.9999 26.8449 21ZM15.3363 13.7676L12.0969 10.9332C12.0784 10.9171 12.0545 10.9065 12.0287 10.9028C12.0029 10.8992 11.9764 10.9027 11.9531 10.9129C11.9297 10.9232 11.9105 10.9395 11.8983 10.9597C11.8861 10.98 11.8814 11.003 11.8849 11.0257C12.0157 11.761 12.4103 12.441 13.0117 12.9672C13.6131 13.4934 14.3902 13.8387 15.2306 13.9531C15.2565 13.9562 15.2828 13.9521 15.3059 13.9414C15.329 13.9307 15.3477 13.914 15.3594 13.8935C15.3711 13.873 15.3751 13.8499 15.371 13.8273C15.3668 13.8047 15.3547 13.7838 15.3363 13.7676ZM16.337 7.21656L19.5813 10.0542C19.5999 10.0706 19.6238 10.0814 19.6497 10.0851C19.6757 10.0889 19.7023 10.0854 19.7258 10.0752C19.7494 10.0649 19.7686 10.0485 19.7809 10.0281C19.7931 10.0077 19.7977 9.98453 19.794 9.96175C19.6636 9.2254 19.2687 8.54449 18.6665 8.01759C18.0643 7.49069 17.2861 7.14516 16.4446 7.03102C16.4185 7.02751 16.3919 7.03128 16.3684 7.04182C16.345 7.05235 16.3259 7.0691 16.314 7.08968C16.302 7.11025 16.2978 7.1336 16.302 7.15639C16.3061 7.17917 16.3184 7.20023 16.337 7.21656Z" fill="black"/>
<path d="M30.5351 11.4416C30.7422 11.1572 30.8516 10.8268 30.8505 10.4896C30.8494 10.1524 30.7378 9.82253 30.5288 9.53919C28.8738 7.29969 26.7266 5.39731 24.3198 4.0373C21.6534 2.53117 18.7137 1.73486 15.8165 1.73486C14.2892 1.7367 12.7722 1.95459 11.3244 2.38012C11.2838 2.39191 11.2474 2.41258 11.2186 2.44017C11.1898 2.46775 11.1696 2.50133 11.1598 2.5377C11.15 2.57408 11.151 2.61204 11.1628 2.64797C11.1745 2.6839 11.1965 2.7166 11.2268 2.74297L14.1815 5.32836C14.2122 5.35526 14.2504 5.37471 14.2923 5.38479C14.3342 5.39486 14.3783 5.39522 14.4204 5.38582C15.422 5.17226 16.4695 5.18791 17.4621 5.43126C18.4547 5.67462 19.359 6.13748 20.088 6.77528C20.8169 7.41309 21.3459 8.20435 21.624 9.0729C21.9021 9.94144 21.92 10.858 21.6759 11.7344C21.6653 11.7711 21.6658 11.8097 21.6773 11.8462C21.6888 11.8828 21.7109 11.9161 21.7416 11.9429L25.9917 15.6644C26.0359 15.7032 26.0951 15.726 26.1576 15.7285C26.2202 15.7309 26.2815 15.7127 26.3294 15.6776C27.9654 14.4574 29.3831 13.0296 30.5351 11.4416ZM15.8365 15.7454C14.9275 15.7455 14.0304 15.5649 13.2128 15.2175C12.3952 14.87 11.6784 14.3646 11.1165 13.7394C10.5545 13.1143 10.1622 12.3856 9.96892 11.6085C9.77567 10.8313 9.78659 10.0259 10.0009 9.25296C10.0115 9.2162 10.011 9.17766 9.99951 9.14111C9.988 9.10455 9.96583 9.07124 9.93519 9.04444L5.75453 5.38473C5.7102 5.34589 5.65082 5.32305 5.58815 5.32072C5.52548 5.31838 5.46409 5.33674 5.41615 5.37214C3.89063 6.51104 2.47644 7.89678 1.18359 9.5162C0.957282 9.80041 0.832647 10.1371 0.825519 10.4834C0.818391 10.8297 0.929093 11.1701 1.14356 11.4613C2.79543 13.7232 4.92078 15.6283 7.29069 16.9697C9.96083 18.4819 12.8292 19.2481 15.8165 19.2481C17.3592 19.2445 18.892 19.0312 20.3599 18.616C20.4008 18.6045 20.4376 18.5841 20.4669 18.5566C20.4961 18.5291 20.5168 18.4955 20.5269 18.459C20.5371 18.4225 20.5363 18.3843 20.5247 18.3482C20.513 18.312 20.491 18.2791 20.4606 18.2526L17.4915 15.6551C17.4609 15.6283 17.4228 15.6089 17.381 15.5988C17.3393 15.5888 17.2952 15.5884 17.2532 15.5977C16.7894 15.696 16.3138 15.7456 15.8365 15.7454Z" fill="black"/>
</g>
</svg>
