<svg width="175" height="57" viewBox="0 0 175 57" fill="none" xmlns="http://www.w3.org/2000/svg">
<g clip-path="url(#clip0_302_5157)">
<path d="M55.4955 37.694C60.6122 37.694 64.7601 33.5779 64.7601 28.5003C64.7601 23.4228 60.6122 19.3066 55.4955 19.3066C50.3789 19.3066 46.231 23.4228 46.231 28.5003C46.231 33.5779 50.3789 37.694 55.4955 37.694Z" stroke="#040055" stroke-miterlimit="10"/>
<path d="M49.7266 43.4184C58.0292 43.4184 64.7598 36.7393 64.7598 28.5002C64.7598 20.2611 58.0292 13.582 49.7266 13.582C41.4241 13.582 34.6935 20.2611 34.6935 28.5002C34.6935 36.7393 41.4241 43.4184 49.7266 43.4184Z" stroke="#040055" stroke-miterlimit="10"/>
<path d="M43.9348 49.1661C55.4362 49.1661 64.7599 39.9137 64.7599 28.5003C64.7599 17.0869 55.4362 7.83447 43.9348 7.83447C32.4335 7.83447 23.1097 17.0869 23.1097 28.5003C23.1097 39.9137 32.4335 49.1661 43.9348 49.1661Z" stroke="#040055" stroke-miterlimit="10"/>
<path d="M39.0636 54C53.2553 54 64.7599 42.5834 64.7599 28.5002C64.7599 14.4171 53.2553 3.00049 39.0636 3.00049C24.8719 3.00049 13.3673 14.4171 13.3673 28.5002C13.3673 42.5834 24.8719 54 39.0636 54Z" stroke="#040055" stroke-miterlimit="10"/>
<path d="M89.674 21.0001C89.674 18.6158 89.7152 15.9251 89.7766 14.3351H89.674C89.0167 17.2087 87.5995 21.8762 86.2438 26.2788H83.6351C82.5874 22.4265 81.1297 17.1068 80.5129 14.2942H80.4103C80.5332 15.9452 80.5954 18.8389 80.5954 21.244V26.2781H77.8022V12.2363H82.3618C83.4709 15.905 84.703 20.5114 85.1347 22.5901H85.1549C85.5041 20.7561 87.0442 15.8232 88.2358 12.2363H92.6312V26.2788H89.674V21.0001Z" fill="#040055"/>
<path d="M97.7823 23.0385L96.6941 26.2796H93.6747L98.4808 12.2363H102.322L107.353 26.2796H104.128L102.958 23.0385H97.7823ZM102.301 20.5516C101.294 17.5761 100.658 15.6804 100.309 14.4169H100.288C99.9392 15.8031 99.2407 18.0037 98.4396 20.5516H102.301Z" fill="#040055"/>
<path d="M119.888 21.9375C119.333 24.5665 117.341 26.4823 113.788 26.4823C109.289 26.4823 107.174 23.3231 107.174 19.3287C107.174 15.3342 109.371 12.0322 113.931 12.0322C117.711 12.0322 119.539 14.2128 119.888 16.577H116.828C116.52 15.4763 115.76 14.3964 113.829 14.3964C111.303 14.3964 110.338 16.6588 110.338 19.2268C110.338 21.591 111.18 24.098 113.912 24.098C115.925 24.098 116.541 22.7734 116.808 21.9375H119.889H119.888Z" fill="#040055"/>
<path d="M121.604 12.2363H124.664V17.6981H130.374V12.2363H133.434V26.2788H130.374V20.2051H124.664V26.2788H121.604V12.2363Z" fill="#040055"/>
<path d="M137.451 26.2786V15.7942C136.807 16.0927 135.605 16.3482 134.896 16.412V14.1317C136.249 13.8763 137.602 13.1301 138.397 12.2354H140.587V26.2786H137.451Z" fill="#040055"/>
<path d="M153.478 19.1823C153.478 23.0397 152.254 26.534 148.045 26.534C143.836 26.534 142.634 23.1459 142.634 19.267C142.634 15.3881 144.051 12 148.109 12C152.168 12 153.478 15.1965 153.478 19.1816V19.1823ZM145.79 19.2247C145.79 21.8034 146.09 24.1045 148.087 24.1045C150.085 24.1045 150.299 21.952 150.299 19.2031C150.299 16.4543 149.956 14.4295 148.109 14.4295C146.263 14.4295 145.79 16.1982 145.79 19.224V19.2247Z" fill="#040055"/>
<path d="M77.8032 44.9798V30.9365H81.6028C83.3692 34.0757 86.6345 39.7821 87.2918 41.3111H87.333C87.1689 39.8438 87.1689 37.3978 87.1689 35.0945V30.9365H89.9417V44.9798H86.3475C84.8276 42.2281 81.2131 35.7059 80.4937 34.0757H80.4525C80.5551 35.2983 80.5964 38.1928 80.5964 40.6998V44.9798H77.8032Z" fill="#040055"/>
<path d="M102.209 38.9263H95.4311V42.4931H102.907L102.538 44.9793H92.4536V30.936H102.497V33.4229H95.4311V36.4193H102.209V38.9263Z" fill="#040055"/>
<path d="M107.507 33.4234H103.194V30.9365H114.86V33.4234H110.567V44.9798H107.507V33.4234Z" fill="#040055"/>
<path d="M118.896 44.9798L115.282 30.9365H118.548C119.882 37.377 120.478 40.2506 120.642 41.7997H120.663C121.197 39.2109 122.573 34.3196 123.394 30.9365H126.146C126.886 33.6272 128.303 39.0689 128.775 41.6569H128.795C129.268 38.5587 130.644 33.1171 131.158 30.9365H134.115L130.295 44.9798H127.112C126.372 41.8614 125.12 37.316 124.626 34.9116H124.606C124.093 37.4186 122.82 42.147 122.06 44.9798H118.897H118.896Z" fill="#040055"/>
<path d="M147.925 37.9074C147.925 41.8207 145.563 45.1837 140.962 45.1837C136.361 45.1837 134.184 41.9836 134.184 37.9483C134.184 33.9129 136.752 30.7329 141.147 30.7329C145.296 30.7329 147.925 33.6066 147.925 37.9074ZM137.347 37.8873C137.347 40.6389 138.559 42.7176 141.065 42.7176C143.796 42.7176 144.762 40.4553 144.762 37.9483C144.762 35.2784 143.652 33.199 141.023 33.199C138.394 33.199 137.347 35.1557 137.347 37.8866L137.347 37.8873Z" fill="#040055"/>
<path d="M152.723 39.3544V44.9798H149.725V30.9365H155.948C159.029 30.9365 160.693 32.6076 160.693 34.7889C160.693 36.6637 159.666 37.6833 158.639 38.111C159.337 38.3757 160.405 39.0889 160.405 41.6168V42.3099C160.405 43.2477 160.405 44.3275 160.61 44.9798H157.694C157.447 44.3684 157.406 43.3087 157.406 41.8205V41.6168C157.406 40.0884 157.015 39.3544 154.736 39.3544H152.723H152.723ZM152.723 36.9292H155.291C156.955 36.9292 157.612 36.2971 157.612 35.1354C157.612 33.9738 156.852 33.3416 155.352 33.3416H152.723V36.9285V36.9292Z" fill="#040055"/>
<path d="M162.68 30.9365H165.699V37.194C166.644 36.1141 169.56 32.9549 171.348 30.9365H175.003L169.314 36.7656L175.23 44.9798H171.553L167.199 38.7431L165.699 40.1494V44.9798H162.68V30.9365Z" fill="#040055"/>
<path d="M62.7217 30.1267C62.8963 30.0262 46.2659 24.5715 41.7476 24.7052C37.2293 24.8388 23.8081 26.445 23.8081 26.445L19.6939 23.9021H17.4687V26.445H14.4342L11.1293 23.5674H9.10556L7.75643 28.0511L0 28.6318V29.0338L6.24997 29.1675L6.74458 31.1308L31.6529 31.4655L35.0246 30.5951C35.0246 30.5951 60.0568 31.6655 62.7206 30.1267H62.7217Z" fill="#040055"/>
</g>
<defs>
<clipPath id="clip0_302_5157">
<rect width="175" height="57" fill="white"/>
</clipPath>
</defs>
</svg>
